<svg xmlns="http://www.w3.org/2000/svg" width="1280" height="720" xmlns:v="https://vecta.io/nano"><style><![CDATA[.B{fill:#fdfdfd}.C{fill:#fefefe}.D{fill:#010101}.E{fill:#fbfbfb}.F{fill:#fafafa}.G{fill:#fcfcfc}.H{fill:#080808}.I{fill:#0e0e0e}.J{fill:#f8f8f8}.K{fill:#d1d1d0}.L{fill:#343433}.M{fill:#191918}]]></style><path d="M0 0h1280v720H0V0z" fill="#7a7a7a"/><path d="M25.207 608.902l3.307.004 10.298.031 7.049.014L63 609v3h2l.48 2.762c1.65 9.164 3.632 18.196 5.893 27.229l.638 2.587.577 2.294C73 649 73 649 73 653l1.863-1.277 2.449-1.66 2.426-1.652C82 647 82 647 85 646c.688-1.323 1.352-2.657 2-4 1.594-1.605 1.594-1.605 3.5-3.187a372.29 372.29 0 0 0 9.5-8.312l11.313-9.992c1.408-1.258 2.745-2.593 4.063-3.945C117 615 117 615 119 615v-2c2.225-2.656 3.984-3.906 7.475-4.229 2.961.059 5.886.241 8.837.479l3.111.199L146 610l1 107h4l-.007-3.168-.045-29.826-.024-15.327-.019-14.842-.011-5.611c-.036-12.775.351-25.474 1.106-38.227l115.173-1.123 11.436-.009 18.356-.002 6.821-.002c13.771-.011 27.467.298 41.214 1.136l1 107h4l-.007-3.168-.045-29.826-.024-15.327-.019-14.842-.011-5.611c-.036-12.775.351-25.474 1.106-38.227l115.115-1.123 11.419-.009 18.337-.002 6.81-.002 9.515.007 2.688-.006c10.073.032 20.02.655 30.117 1.136v107h4l-.007-3.168-.045-29.826-.024-15.327-.019-14.842-.011-5.611c-.036-12.775.351-25.474 1.106-38.227l115.115-1.123 11.419-.009 18.337-.002 6.81-.002 9.515.007 2.688-.006c10.073.032 20.02.655 30.117 1.136v107h5V610l115.115-1.123 11.419-.009 18.337-.002 6.81-.002 9.515.007 2.688-.006c10.073.032 20.02.655 30.117 1.136v107h5l-.007-3.168-.045-29.826-.024-15.327-.019-14.842-.011-5.611c-.036-12.775.351-25.474 1.106-38.227 3.874-.251 7.745-.422 11.625-.562l3.316-.229c7.927-.216 7.927-.216 11.008 2.527 1.6 2.349 2.842 4.693 4.05 7.264l2.352 4.297 2.273 4.453c4.295 8.337 8.877 16.479 13.616 24.571l1.486 2.558 1.331 2.268C1001 659 1001 659 1001 661c6.218-1.152 10.549-3.335 15.801-6.855L1019 653c3.882 1.294 4.984 3.18 7.5 6.375L1031 665l1.469 1.852c1.54 1.328 1.54 1.328 3.898 1.613 3.657-.646 5.121-2.317 7.758-4.902l2.91-2.773 1.489-1.421c2.256-2.091 4.641-4.006 7.039-5.931 3.576-2.886 7.042-5.842 10.438-8.937 4.3-3.919 8.759-7.592 13.281-11.25 3.489-2.887 6.819-5.929 10.164-8.98 3.603-3.201 7.347-6.216 11.109-9.227 2.477-1.96 2.477-1.96 4.395-4.285 5.648-4.841 19.801-1.588 27.055-1.238l2.925.14 7.071.34.5 27.063.036 2.038.464 77.9h4l-.007-3.168-.045-29.826-.024-15.327-.019-14.842-.011-5.611c-.036-12.775.351-25.474 1.106-38.227l110-1v3h2l.48 2.762c1.65 9.164 3.632 18.196 5.893 27.229l.638 2.587.577 2.294C1268 649 1268 649 1268 653l1.863-1.242L1280 645v75H0V610c8.496-.654 16.725-1.14 25.207-1.098z" class="C"/><path d="M749 410h194v14h-87v16h34v100h33V440h33v-17h-7v-12c38.014-.963 76.024-1.113 114.049-1.123l11.427-.009 18.354-.002 6.819-.002L1121 410l3.021.024 8.71.172 2.621.016c4.487.159 6.142.369 9.727 3.339L1147 416l1-5 95.179-1.034 12.535.01L1280 410l.409 89.455.031 10.563.006 2.124.171 34.042.135 34.934.093 19.62.059 18.465.049 6.778.008 9.254.071 2.709c-.073 3.816-.303 6.146-2.737 9.177-3.249 2.971-5.9 5.08-10.295 5.877l-3.418-13.66-1.164-4.638-1.668-6.703-.53-2.062c-1.153-4.751-1.373-9.049-1.22-13.938h-2v-3l-3.745.092c-35.433.852-70.81.992-106.255.908l-1 107h-4l-1.062-79.937.003-2.052.06-25.01c-21.894-2.729-21.894-2.729-41.553 3.836a66.99 66.99 0 0 0-5.258 6.6c-1.926 2.534-4.367 4.321-6.876 6.252-3.538 2.842-6.959 5.755-10.312 8.813-4.3 3.919-8.759 7.592-13.281 11.25-3.486 2.885-6.814 5.925-10.156 8.973-3.673 3.265-7.486 6.348-11.312 9.43-2.271 1.804-2.271 1.804-4.25 3.848-2.234.523-2.234.523-5 0-2.372-1.872-4.283-4.09-6.25-6.375l-1.641-1.828c-3.911-4.4-3.911-4.4-5.109-6.797-4.214 1.495-7.837 3.634-11.621 5.977-2.918 1.255-5.231 1.094-8.379 1.023l-1.247-2.265L985 632l-1.063-1.922-6.812-12.265-1.782-3.217-1.648-2.951-1.437-2.583c-1.219-2.179-1.219-2.179-3.258-4.062l-2-5-2.941-5.613-1.771-3.287-1.85-3.412-1.768-3.283L944 558l-1 46-115.115 1.123-11.419.009-18.337.002c-2.27-.001-4.54 0-6.81.002a3754.36 3754.36 0 0 1-9.515-.007l-2.688.006c-10.073-.032-20.02-.655-30.117-1.136v-64h71v-16h17v-34h-17v-16h-67v-34h50v17h34v-17h-17v-16h-71v-14z" fill="#060606"/><path d="M945 71h2l1 87 11 3 6.875 2.563 3.18 1.254L972 166l2.738 1.027c2.764 1.189 4.331 2.685 6.262 4.973v2l1.75.75c2.579 1.433 4.311 3.034 6.25 5.25v2h2l3.188 3.563c3.415 4.024 7.031 7.759 10.813 11.438l-3 1 5 2c0 4 0 4-1 7h75l-1 3-77 1-2 5c-.595 1.214-1.21 2.418-1.848 3.609l-1.07 2.01-1.145 2.131-2.441 4.578-1.258 2.354L987.5 241.5l-2.215 4.184-1.121 2.117L974 267c-6.321-.546-11.609-2.633-17.437-5.062l-2.795-1.143L947 258l.007 1.967.048 20.194.021 7.546.022 10.82.016 3.431v3.155l.007 2.793C947 310 947 310 946 311c-.124 2.269-.178 4.542-.205 6.815l-.03 2.158-.081 7.094-.063 4.906-.153 12.937-.161 13.191L945 384h-1l-1-128-9-2c-2.745-.931-5.429-1.886-8.125-2.937l-2.012-.764c-4.336-1.659-8.606-3.447-12.863-5.299l2-6-3 5-7-6-4 2c-2.957 1.478-5.742 1.06-9 1-.125-3.375-.125-3.375 0-7 2.139-2.139 3.133-2.427 6-3l-1.75-1.68-2.25-2.195-2.25-2.18C888 223 888 223 888 221l-1.875-.75c-2.512-1.478-2.886-2.69-4.125-5.25l-3-1-1-2-129-1v94h58v14h-58v27h44v13h-44v28h57v13h-95v-95h33v-94h-12l.105 5.73.082 7.457.076 3.775.029 3.643.048 3.348c-.699 6.251-4.865 10.063-9.438 13.991C713.021 255.94 700.713 259.519 689 262l-2.352.54c-9.488 1.912-19.002 1.763-28.638 1.721-2.938-.011-5.875 0-8.813.013-9.901.008-19.467-.223-29.197-2.273l-2.542-.52c-13.565-2.966-25.864-7.232-36.458-16.48 2-5 2-5 3.125-7.187 1.505-4.837 1.888-10.054.117-14.875-1.511-2.76-3.272-4.967-5.492-7.187L577 214v-3h-14c.473 4.997.473 4.997 3.563 7.25 3 3.385 3.1 5.104 2.883 9.488-.469 2.38-1.188 3.808-2.508 5.824-2.118 3.757-1.878 4.878-1.25 8.947.658 5.241.582 10.528.625 15.803l.088 3.514c.08 10.915-2.112 19.529-9.654 27.623C555 291 555 291 552.125 292.313L550 294l-1 11h59v14h-27v81h-27v-81h-28v-14h19c.468-5.697.468-5.697-1-11-3.476-2.399-6.877-3.915-10.777-5.465C530 287 530 287 528.559 284.809L528 283l1.723-1.547 2.34-2.203 2.285-2.109c9.992-11.23 10.496-20.702 9.84-35.016l-.265-7.918-.197-4.888c-.163-5.276.749-8.141 4.274-12.318l3-2c.364-2.207.364-2.207.188-4.625l-.082-2.477L551 206h2l.25-3.312c.999-7.924 3.939-15.33 8.75-21.687l-1.555-.445c-8.895-2.606-17.662-5.598-26.445-8.555l-1-7c2.811-2.289 5.32-3.652 8.748-4.81l2.884-.986 3.144-1.049 3.327-1.129 10.908-3.667 5.668-1.906 17.833-5.97 18.346-6.174 15.787-5.302 9.412-3.167 10.519-3.513 3.113-1.073c9.284-3.019 16.186-1.952 25.244 1.164l2.237.745 7.266 2.455 5.172 1.733 13.633 4.594 13.503 4.541 15.888 5.345 25.28 8.437 4.659 1.535 8.655 2.83 3.834 1.263 3.348 1.092C774 163 774 163 776 165c.375 2.438.375 2.438 0 5-2.741 2.469-5.435 3.683-8.914 4.824l-2.805.928-2.906.936-2.93.971C751.295 180 751.295 180 749 180v26l131 1 2-5c4.425-9.419 9.429-18.531 14.433-27.652l9.692-17.973 1.109-2.097L912 145h2c1.508 1.531 1.508 1.531 3.125 3.5l1.633 1.969L920 152l-3-4c6.858-2.445 15.077 3.016 21.375 5.648l3.211 1.341L944 156l-.007-3.182-.045-29.623-.024-15.231-.019-14.686-.011-5.616-.008-7.838-.011-2.369c.01-5.341.01-5.341 1.124-6.455z" class="I"/><path d="M466.115 10.877l11.419-.009 18.337-.002 6.81-.002 9.515.007 2.688-.006c10.073.032 20.02.655 30.117 1.136v148l-10 4c-1.416 1.184-1.416 1.184-1.062 4.563L534 172l11 3v31H351l-1.127-115.278-.007-14.906V61.153l-.002-6.839c-.012-14.136.326-28.2 1.136-42.314l115.115-1.123z" class="B"/><path d="M267.173 409.877l11.436-.009 18.356-.002 6.821-.002c13.771-.011 27.467.298 41.214 1.136l1.13 109.762.004 19.175v15.132l.002 7.076c.011 13.985-.279 27.895-1.136 41.855-38.189.952-76.372 1.113-114.572 1.123l-11.553.009-18.549.002a5285.4 5285.4 0 0 0-6.897.002c-13.843.011-27.611-.292-41.43-1.136l-.064-1.909-.084-2.506-.083-2.483-.22-5.158c-.07-4.258-.058-6.29 2.626-9.741L157 580l2.719-2.535 2.781-2.527 2.781-2.535C168 570 168 570 170.781 567.879c2.468-1.76 2.468-1.76 3.219-4.879l-2.02-.344c-3.645-.803-7.139-1.958-10.668-3.156l-2.049-.684c-4.982-1.675-4.982-1.675-7.264-2.816-1.35-7.655-1.145-15.665-1.129-23.418l-.005-3.248.002-10.522-.003-7.405.005-15.493-.004-19.694v-15.294l-.002-7.252c-.011-14.258.254-28.442 1.136-42.675l115.173-1.123zm796.105-399.004l14.906-.007h14.663l6.839-.002c14.136-.012 28.2.326 42.314 1.136l1.123 115.115.009 11.419.002 18.337.002 6.81-.007 9.515.006 2.688c-.032 10.073-.655 20.02-1.136 30.117h-135v-5l-8-3 3-1 1-1-1.531-1.461-1.969-1.914-1.969-1.898C996 189 996 189 996 187l-1.937-.812C992 185 992 185 991 182h-2c-1.332-1.355-1.332-1.355-2.812-3.187-2.578-3.114-5.286-5.991-8.187-8.812l-2-2c-1.543-.539-3.11-1.01-4.687-1.437-4.281-1.223-8.231-2.772-12.312-4.562l-11-4V12l115.278-1.127z" class="C"/><path d="M267.115 10.877l11.419-.009 18.337-.002 6.81-.002 9.515.007 2.688-.006c10.073.032 20.02.655 30.117 1.136v194h-12l-1.758-3.91-2.367-5.152-1.148-2.568c-3.817-8.239-8.219-14.727-16.793-18.371-11.734-3.994-21.456.779-31.859 5.897l-7.772 3.682c-7.729 3.61-15.296 7.302-22.588 11.735C225.563 211.397 199.099 208.337 172 207l-6.128-.289L152 206c-.948-38.37-1.113-76.734-1.123-115.115l-.009-11.419-.002-18.337-.002-6.81c-.012-14.138.325-28.205 1.136-42.32l115.115-1.123z" class="B"/><path d="M1003 211c2.417-.369 2.417-.369 5.517-.361l3.552-.012 3.917.033 4.109-.001 11.175.038 11.671.024 22.11.064 25.168.065L1142 211l1.13 111.652.004 18.532v14.663l.002 6.839c.012 14.136-.326 28.2-1.136 42.314-38.371.93-76.734 1.113-115.115 1.123l-11.419.009-18.337.002c-2.27-.001-4.54 0-6.81.002a3754.36 3754.36 0 0 1-9.515-.007l-2.688.006c-10.073-.032-20.02-.655-30.117-1.136V259c6.745 1.124 6.745 1.124 9.945 2.375l2.074.797 2.105.828c5.846 2.283 5.846 2.283 11.875 4l.809-2.637c1.166-3.291 2.563-6.126 4.254-9.176l1.887-3.441 1.009-1.836 5.417-10.16 1.131-2.138 5.998-11.369 1.235-2.343 2.343-4.455c1.535-2.911 3.091-5.703 4.918-8.444z" class="C"/><path d="M860.652 10.87l18.532-.004h14.663l6.839-.002 9.509.007 2.687-.006c10.074.032 20.02.655 30.117 1.136v143c-6.74-1.123-6.74-1.123-9.98-2.41l-2.088-.811-2.119-.842c-5.239-2.19-5.239-2.19-10.812-2.937l4 5c-3.362-1.441-5.592-3.248-8-6v-2h-2l-.345 1.688c-.752 2.655-1.853 4.867-3.131 7.313l-1.523 2.92-1.626 3.08-1.655 3.156c-3.232 6.129-6.577 12.143-10.138 18.086-2.474 4.312-4.635 8.77-6.809 13.238-1.405 2.789-2.863 5.514-4.384 8.24l-1.358 2.435L880 207l-41.939.052-19.48.024-18.849.019-7.141.011c-14.571.032-29.041-.295-43.592-1.106v-26l5.434-1.934 7.004-2.504 3.588-1.275 3.408-1.221 3.158-1.127c2.323-.721 2.323-.721 3.408-1.94.041-1.666.043-3.334 0-5-6.595-2.778-13.274-5.15-20.084-7.337-4.814-1.561-4.814-1.561-5.916-2.663-.096-1.848-.122-3.699-.12-5.549l-.004-3.65.011-4.041v-4.227l.013-11.51.008-12.016.021-22.769.022-25.915L749 12l111.652-1.13z" class="B"/><path d="M475.003 409.928l27.373.025L545 410v114h-32V424h-33v100h17v16h48l.063 20.75.028 6.409c.03 12.312-.342 24.552-1.09 36.841-38.188.972-76.373 1.113-114.572 1.123l-11.553.009-18.549.002a4866.62 4866.62 0 0 0-6.897.002c-13.843.011-27.611-.292-41.43-1.136l-1.123-115.173-.009-11.436-.002-18.356-.002-6.821c-.011-13.771.298-27.467 1.136-41.214l124.003-1.072z" class="E"/><path d="M749 211l45.465-.439 27.817-.24 20.26-.168 10.722-.105 11.986-.07 3.568-.098c7.895.089 7.895.089 11.654 3.1 2.013 2.254 3.777 4.56 5.528 7.02l2.625 2.625c2.976 2.976 5.672 6.152 8.375 9.375l-6 2-1 7 4.25-.875 2.391-.492c2.328-.624 4.25-1.481 6.359-2.633l6 6 5-8 1 2c-.966 2.017-1.967 4.017-3 6v2l2.965.953c12.81 4.166 12.81 4.166 18.91 7.152 2.941 1.238 6.057 2.018 9.125 2.895v149l-115.278 1.127c-4.969-.003-9.937.002-14.906.007h-14.663a5196.88 5196.88 0 0 0-6.839.002c-14.136.012-28.2-.326-42.314-1.136v-5h57v-13h-57v-28h44v-13h-44v-27h58v-14h-58v-94zm-398 0h194c0 54.711 0 54.711-9.652 66.141l-2.285 2.109-2.34 2.203L529 283c1.443 4.33 4.708 5.245 8.563 7.188l2.154 1.115L545 294v11h-19v14h19v86l-28.625.5-8.885.158L463 406c2.442-2.454 4.891-4.848 7.5-7.125l2.063-1.828c1.824-1.532 3.711-2.989 5.625-4.406 5.914-4.156 5.914-4.156 9.684-10.07.137-4.775-1.233-8.577-3.871-12.57-3.257-1.348-3.257-1.348-7.125-1.937-14.18-3.017-26.112-8.635-37.898-17.023-2.841-2.147-2.841-2.147-5.977-3.039.597 5.326 1.579 9.556 5.414 13.453 3.106 2.344 6.277 4.506 9.586 6.547l1.831 1.131 8.747 5.24L461 376v2l-13.25 2.375-3.742.672-7.464 1.32-6.497 1.234c-8.335 1.616-16.532 1.704-24.991 1.659-2.42-.011-4.839 0-7.259.013-12.635.012-24.757-1.292-37.047-4.336l-2.215-.525c-5.238-1.263-5.238-1.263-7.535-2.412-1.166-27.532-1.155-55.062-1.13-82.615l-.004-19.17v-15.011l-.002-7.065.007-9.905-.006-2.816c.031-10.176.65-20.216 1.136-30.417z" class="B"/><path d="M24.531 10.871l3.248-.005 10.505.002 7.401-.003 15.475.005 19.67-.004h15.281l7.244-.002c14.248-.011 28.422.255 42.644 1.136l1.123 115.115.009 11.419.002 18.337.002 6.81-.007 9.515.006 2.688c-.032 10.073-.655 20.02-1.136 30.117H0V12c8.267-.636 16.279-1.146 24.531-1.129z" class="C"/><path d="M314.375 176c10.726 6.297 15.043 16.931 19.625 28v2h12v1h-11l2.897 6.095 2.462 5.229c1.787 3.811 3.569 7.605 5.574 11.306 4.519 8.659 5.984 17.25 3.398 26.852-4.296 9.698-13.004 14.314-22.207 18.52l-3.536 1.659L312 282l-2.061.942-19.04 8.655-26.497 12.347-2.286 1.103-1.918.933c-2.412 1.12-4.855 2.158-7.302 3.2-3.273 1.416-6.505 2.919-9.741 4.418l-2.272 1.05-7.384 3.415-5.203 2.405-10.84 5.01-15.859 7.327-2.542 1.174-12.407 5.725-2.406 1.109-4.679 2.157-14.098 6.534L159 352.5l-2.838 1.33c-8.617 3.982-17.338 7.422-26.815 4.295-8.965-4.098-12.751-9.644-17.035-18.312l-1.053-2.121c-3.538-7.172-6.873-14.434-10.161-21.723l-2.98-6.58-1.922-4.244-.887-1.957c-4.159-9.227-6.708-18.199-3.281-28.18 5.449-9.933 15.845-14.173 25.723-18.82l3.306-1.573c7.698-3.634 15.462-7.092 23.339-10.321 5.086-2.11 10.014-4.468 14.925-6.954 9.719-4.917 19.601-9.469 29.492-14.027l5.428-2.51 20.686-9.494 18.449-8.559 36.438-16.875 2.407-1.107 11.077-5.072 6.544-3.054c8.085-3.812 16.211-4.379 24.533-.642z" class="D"/><path d="M1280 11v196l-54.687.063-17.139.028-10.319.005-6.787.01-10.401.008-2.951.011c-10.28-.015-20.405-.634-30.715-1.124V12l133-1z" class="B"/><path d="M749 410h194v14h-87v16h34v100h33V440h20l.052 42.428.024 19.7.019 19.004.011 7.258.008 10.149.011 3.045-.004 2.796.003 2.425C943 549 943 549 942.43 551.226L942 553l1 1 .114 4.703v3.033l-.016 3.299-.004 3.359-.031 10.669-.014 7.213L943 604c-38.37.948-76.734 1.113-115.115 1.123l-11.419.009-18.337.002c-2.27-.001-4.54 0-6.81.002a3754.36 3754.36 0 0 1-9.515-.007l-2.688.006c-10.073-.032-20.02-.655-30.117-1.136v-64h71v-16h17v-34h-17v-16h-67v-34h50v17h34v-17h-17v-16h-71v-14z" class="G"/><path d="M1147 211h133v195l-54.75.063-17.167.028-10.325.005-6.797.01c-14.356.031-28.632-.21-42.961-1.106l-1.098-95.172v-3.987l.035-31.591L1147 211z" class="C"/><path d="M665.278 10.873l14.906-.007h14.663l6.839-.002 9.509.007 2.687-.006c10.074.032 20.02.655 30.117 1.136v141c-5.901-1.311-11.384-2.663-17.039-4.63l-2.266-.774-4.817-1.653-7.646-2.608-21.722-7.412-13.336-4.539-5.052-1.736-7.083-2.407-2.069-.738c-8.688-2.842-16.403-.322-24.772 2.548l-2.832.946-9.174 3.1-6.404 2.148-16.791 5.657-26.948 9.066-9.416 3.178-5.736 1.932-2.656.902-2.417.812-2.104.711C552 158 552 158 550 158V12l115.278-1.127z" class="B"/><path d="M0 211h146v33l-11.312 5.438-3.721 1.791-15.681 7.432-2.594 1.207-4.762 2.189c-6.553 3.048-11.595 6.421-14.876 13.048-3.512 9.659-1.253 19.026 2.889 27.982L99 309.313l2.086 4.369 4.09 8.504c1.929 3.997 3.703 8.051 5.436 12.137 4.273 10.064 8.308 17.67 18.389 22.678 3.619 1.206 6.925 1.108 10.688 1.063l2.127-.014L147 358l.063 11.688.025 3.225c.031 10.715-.517 21.391-1.088 32.088-48.679 1.117-97.293 1-146 1V211z" class="C"/><path d="M563 211l6.813-.312 3.832-.176c3.355.488 3.355.488 5.141 2.813L580 216l2.625 3.125c3.577 4.33 3.695 7.828 3.68 13.234-.404 3.504-1.686 5.98-3.527 8.949-1.096 1.876-1.096 1.876.223 4.691 16.314 13.139 39.344 17.061 59.766 17.238l2.77.024 5.789.032 5.787.062c23.615.363 52.399-2.342 70.451-19.544 3.469-4.003 3.585-6.876 3.754-12.012l.127-3.662.119-3.826.131-3.861L732 211h12v94h-33v95h33v5c-38.37.948-76.734 1.113-115.115 1.123l-11.419.009-18.337.002c-2.27-.001-4.54 0-6.81.002a3754.36 3754.36 0 0 1-9.515-.007l-2.688.006c-10.073-.032-20.02-.655-30.117-1.136v-86h4v81h27v-81h27v-14h-59v-11c2.747-2.472 4.934-4.131 8-6 6.059-5.891 8.215-14.435 8.426-22.664l-.113-6.961-.029-3.523c-.066-5.052-.244-9.992-.924-15-.45-4.824.968-5.964 3.641-9.852.634-3.118.698-5.891 0-9-2.417-2.75-2.417-2.75-5-5-.156-2.641-.156-2.641 0-5z" class="E"/><path d="M24.531 409.871l3.248-.005 10.505.002 7.401-.003 15.475.005 19.67-.004h15.281l7.244-.002c14.248-.011 28.422.255 42.644 1.136l1.063 103.563-.003 2.968L147 554l-4.75-1.375-2.672-.773c-2.345-.775-4.379-1.745-6.578-2.852l-5.797-1.442c-3.8-.963-7.492-2.239-11.203-3.496l-2.289-.764a358.54 358.54 0 0 1-12.919-4.627c-8.249-3.095-16.722-5.601-25.126-8.236L47 521c.431 6.271 1.122 11.974 3 18 .776 3.299 1.452 6.616 2.125 9.938l.551 2.592C53.744 556.796 54.187 561.627 54 567h2l.148 1.941c.456 5.272 1.31 9.979 2.852 15.059l1.535 7.766c.452 2.39.452 2.39 1.465 5.234-.437 2.188-.437 2.188-1 4h2v4H0V411c8.267-.636 16.279-1.146 24.531-1.129z" class="C"/><path d="M1142 448c.735 4.526 1.065 8.513 0 13-2.94 2.504-5.738 3.914-9.277 5.438-2.969 1.3-2.969 1.3-3.602 4.25L1129 473c2.572.935 4.278 1.327 6.82.176L1141 470h2v106l-23 13-7.766 4.516-6.484 3.734-3.309 1.965-3.27 1.863-2.81 1.638c-7.801 2.979-16.805 2.43-25.066 2.398h-3.049l-9.852-.016-6.881-.004-18.016-.025-18.422-.02L979 605l-1.357-2.47-5.091-9.254-2.183-3.971a1028.41 1028.41 0 0 0-18.635-32.497C951 555 951 555 952 552c1.952-1.328 1.952-1.328 4.539-2.68l2.912-1.545 3.174-1.65 6.633-3.523 3.419-1.815c4.988-2.681 9.906-5.478 14.823-8.286l26.52-14.625 20.48-11.375 26.52-14.625 20.48-11.375 26.471-14.596c8.376-4.514 16.655-9.187 24.896-13.943l2.75-1.574 2.425-1.4C1140 448 1140 448 1142 448z" class="E"/><path d="M1280 410v123c-13.66-3.415-13.66-3.415-20.125-6-5.888-2.284-11.778-4.329-17.875-6 .432 6.286 1.205 11.941 3 18 .283 2.197.491 4.385.656 6.594.358 2.509 1.043 4.83 1.764 7.255 1.26 4.678 2.092 9.46 3.017 14.213l1.324 6.707.642 3.249 3.018 14.31L1256 594l.578 2.484c.482 2.872.449 5.608.422 8.516l-33.776.052-15.69.024-15.192.019-5.745.011c-12.906.035-25.71-.371-38.597-1.106v-22l46.933-26.208L1218 543c.629-6.231-2.071-9.994-5.332-14.965-2.776-4.47-2.776-4.47-2.262-7.168 2.175-2.549 4.591-4.539 7.219-6.617l3.039-2.422L1223 510c-.515-4.478-2.105-6.784-5-10.187l-2.469-2.918-9.285-10.367c-2.308-2.597-4.502-5.261-6.684-7.965-3.076-3.803-6.25-7.463-9.562-11.062-4.114-4.47-7.971-9.09-11.785-13.816-2.171-2.631-4.417-5.163-6.715-7.684-3.892-4.27-7.541-8.691-11.148-13.203-3.268-3.886-6.853-7.446-10.48-10.996-2.572-3.85-2.011-6.226-1.871-10.801l132-1z" class="B"/><path d="M1063.049 409.877l11.427-.009 18.354-.002 6.819-.002c14.148-.012 28.225.324 42.35 1.136l-2.398 1.915a210.5 210.5 0 0 0-5.661 4.679l-1.646 1.414-1.732 1.492-3.746 3.219-1.921 1.652L1116 433l-3.5 3-35 30-1.751 1.501-3.493 2.988-8.862 7.687-1.818 1.592-3.344 2.961c-8.552 7.458-18.71 12.774-28.607 18.209l-3.525 1.947-9.241 5.092-9.117 5.027-10.858 5.989-32.119 17.8-2.967 1.646-5.488 3.095-2.451 1.392-2.126 1.22C950 545 950 545 948 545V441h8v-18h-7v-12c38.014-.963 76.024-1.113 114.049-1.123z" class="C"/><path d="M377 424h83v16h17v67h-17v16h-17v17h-66v-16h-17v-84h17v-16z" class="D"/><path d="M256 309l4.063 7.688C277.773 351.345 308.737 374.973 345 388v17c-38.188.972-76.373 1.113-114.572 1.123l-11.553.009-18.549.002a4866.62 4866.62 0 0 0-6.897.002c-3.21.003-6.42-.001-9.631-.007l-2.732.006c-9.729-.03-19.311-.648-29.067-1.136v-50l27.06-13.073 12.475-5.626 2.266-1.026 36.857-17.017 7.133-3.302 7.736-3.654 2.979-1.419 2.465-1.199C253 308 253 308 256 309z" class="B"/><path d="M737 424h83v16h17v17h-34v-17h-50v34h67v16h17v34h-17v16h-83v-16h-17v-17h24v-16h-8v-17h-16v-34h17v-16z" fill="#020202"/><path d="M0 0h1280v7h-133V4h-5v3H948V4h-5v3H749V4h-5v3H550V4h-5v3H351V4h-5v3H152V4h-6v3H0V0z" class="J"/><path d="M480 424h33v100h51V424h33v100h-17v16h-83v-16h-17V424z" class="D"/><path d="M600 424h116v16h-83v34h67v16h-67v34h83v16H600V424z"/><path d="M578 200c3.969.694 7.644 1.821 11.452 3.133l1.899.651 4.064 1.396 10.948 3.728 13.883 4.747 11.26 3.835 4.26 1.465c11.632 4.053 21.09 5.767 32.866 1.524l2.31-.786 7.183-2.507 4.824-1.658 8.899-3.087L705 208l-21-1v-1l2.424-.012c19.885.097 19.885.097 38.924-4.929C728 200 728 200 732 200v6h12v1h-11l-.044 2.766-.218 10.204-.084 4.408-.142 6.352-.079 3.856c-.822 6.487-4.748 10.251-9.53 14.359C713.021 255.94 700.713 259.519 689 262l-2.352.54c-9.488 1.912-19.002 1.763-28.638 1.721-2.938-.011-5.875 0-8.813.013-9.901.008-19.467-.223-29.197-2.273l-2.542-.52c-13.565-2.966-25.864-7.232-36.458-16.48 2-5 2-5 3.125-7.187 1.505-4.837 1.888-10.054.117-14.875-1.502-2.744-3.09-4.811-5.492-6.812-2.782-3.378-2.146-6.921-1.75-11.125.5-3.062.5-3.062 1-5z" class="D"/><path d="M1109.164 510.563c8.026 6.446 14.793 16.466 16.152 26.851.158 2.621.203 5.211.184 7.836l-.015 2.803c-.31 12.193-5.097 21.487-13.586 30.072-4.589 4.29-9.037 7.594-14.898 9.875l-2.266.902c-11.504 4.026-22.597 2.638-33.734-1.902-2.883-1.435-5.431-3.063-8-5l-1.793-1.266c-7.883-6.056-12.904-15.164-15.207-24.734-.436-3.45-.525-6.838-.5-10.312l.017-2.792c.302-11.551 4.508-20.551 12.483-28.896 17.747-16.638 41.894-17.351 61.164-3.437z" class="F"/><path d="M711 305h96v14h-58v27h44v13h-44v28h57v13h-95v-95z" fill="#030303"/><path d="M612 305h27v41h41v-41h27v95h-27v-40h-41v40h-27v-95z" class="D"/><path d="M49 523l2.273.77c5.699 1.916 11.398 3.771 17.18 5.422 2.826.897 5.582 1.947 8.353 2.999 4.565 1.684 9.207 3.146 13.835 4.647l2.313.76 2.067.672c2.082.768 3.999 1.734 5.979 2.73a73.57 73.57 0 0 0 4.313.938c4.177.871 7.772 2.345 11.688 4.063l4.559 1.367c5.421 1.599 10.741 3.431 16.066 5.32l2.754.971L147 556l.125 13.688.051 3.92.02 3.779.032 3.475c-.293 4.05-1.125 6.941-3.891 9.947l-1.961 1.629-2.137 1.789a218.8 218.8 0 0 1-8.672 6.512c-1.707 1.196-1.707 1.196-2.566 3.262l-63 1-.367-2.047-.508-2.703-.492-2.672c-.604-2.461-1.476-4.342-2.633-6.578-.415-2.198-.765-4.408-1.062-6.625-.491-4.334-.491-4.334-1.937-8.375-.309-2.298-.509-4.597-.719-6.906-.173-2.148-.173-2.148-1.281-4.094l-.75-5.25c-1.08-7.43-2.784-14.681-4.573-21.97-1.208-5.069-1.95-9.568-1.677-14.78zm296-261h1v114c-4.595-.919-7.794-2.219-11.914-4.258-2.232-1.036-2.232-1.036-5.086.258a74.57 74.57 0 0 1-6.812-3.812l-2.004-1.236c-9.971-6.228-19.443-12.607-27.511-21.236-1.575-1.803-1.575-1.803-3.672-2.715v-2l-3-1c-3.219-3.485-6.087-7.258-9-11l-1.523-1.934c-3.517-4.671-5.952-9.813-8.477-15.066l-2.082-4.17-1.089-2.176L263 304c11.977-6.097 24.103-11.822 36.313-17.437l5.225-2.408 2.606-1.202 7.726-3.581 10.444-4.763 5.104-2.332 2.352-1.036c5.127-2.366 8.398-5.095 12.23-9.241z" class="B"/><path d="M856 424h100v16h-33v100h-33V440h-34v-16z" class="D"/><path d="M1242 521c7.085.988 13.453 3.174 20.083 5.745 4.645 1.798 9.297 3.369 14.097 4.712C1278 532 1278 532 1280 533l.414 43.446.189 20.174.156 19.471.087 7.426.062 10.406.087 3.097c-.047 4.106-.137 6.867-2.697 10.182-3.241 2.964-5.926 4.99-10.299 5.796l-3.418-13.66-1.164-4.638-1.668-6.703-.53-2.062c-1.153-4.751-1.373-9.049-1.22-13.938h-2v-3l-3.745.092c-35.433.852-70.81.992-106.255.908l-1 107h-4l-1.062-79.937.003-2.052.06-25.01-1.812.008-8.231.023-2.849.013c-6.759.012-13.389-.265-20.108-1.044 9.171-12.228 23.394-19.62 37-26h2v21l109 1c-.71-7.607-.71-7.607-3-14a113.12 113.12 0 0 1-1.184-5.105l-.618-2.957-.636-3.125-.663-3.209c-1.512-7.417-2.858-14.849-3.999-22.333-.277-3.429-.277-3.429-1.901-6.271-.373-2.306-.699-4.621-1-6.937-.481-4.686-.481-4.686-2-9.062-.07-1.874-.084-3.75-.062-5.625l.027-3.039L1242 521z" fill="#262626"/><path d="M1156 440l.987 1.838 19.922 36.156 14.173 25.486 15.466 27.352 1.39 2.398 1.215 2.075C1210 537 1210 537 1210 539l-2.234 1.231-40.118 22.161-5.253 2.909-3.216 1.785-2.821 1.564L1151 572h-3c-1.017-21.726-1.126-43.409-1.069-65.153l.02-13.198L1147 468a66.78 66.78 0 0 1 5.688 8.75l1.324 2.422L1155 481h5c.867-2.417 1.136-3.62.259-6.075l-1.208-2.183-1.322-2.395-1.416-2.473-1.357-2.496c-2.872-5.202-2.872-5.202-7.955-8.379v-13c6.75-4 6.75-4 9-4z" class="G"/><path d="M393 440h50v50h-33v17h17v17h-34v-84z" class="F"/><path d="M526 305h82v14h-27v81h-27v-81h-28v-14z" fill="#030303"/><path d="M175 633l3 1v2h2l3.375 3.75 6.063 6.625C191 648 191 648 191 650h2l3.313 3.625 1.895 2.219 3.117 3.813c2.255 2.817 4.572 5.145 7.363 7.406 2.867 2.362 4.338 4.255 5.313 7.938h2c1.625 1.375 1.625 1.375 3 3v2l3 1c1.605 1.559 1.605 1.559 3.188 3.438l1.605 1.871C228 688 228 688 228 690c-12.772 3.276-25.555 6.422-38.453 9.164l-14.668 3.258-3.019.705-5.681 1.35c-4.489 1.049-8.532 1.79-13.179 1.523.43-5.422 1.242-9.952 3.026-15.124l3.463-10.743.683-2.177 1.414-4.512 2.206-7.031 6.227-19.897.844-2.704 1.473-4.745c1.55-4.954 1.55-4.954 2.663-6.067z" fill="#1e1e1e"/><path d="M1244 523l1.977.84c4.722 1.957 8.961 3.373 14.023 4.16l7 3 13 4v70h-21l-1-9c-.633-1.68-1.296-3.349-2-5-.407-2.22-.759-4.451-1.062-6.687-.496-4.302-.496-4.302-1.937-8.312-.309-2.298-.509-4.597-.719-6.906-.173-2.148-.173-2.148-1.281-4.094-.528-3.5-.962-7.008-1.402-10.52-.542-3.159-1.4-5.537-2.598-8.48-.598-2.627-1.14-5.228-1.625-7.875l-.406-2.066c-.826-4.426-1.098-8.557-.969-13.059z" class="G"/><path d="M1109.164 510.563c8.026 6.446 14.793 16.466 16.152 26.851.158 2.621.203 5.211.184 7.836l-.015 2.803c-.31 12.193-5.097 21.487-13.586 30.072-4.589 4.29-9.037 7.594-14.898 9.875l-2.266.902c-11.504 4.026-22.597 2.638-33.734-1.902-2.883-1.435-5.431-3.063-8-5l-1.793-1.266c-7.883-6.056-12.904-15.164-15.207-24.734-.436-3.45-.525-6.838-.5-10.312l.017-2.792c.302-11.551 4.508-20.551 12.483-28.896 17.747-16.638 41.894-17.351 61.164-3.437zM1053 520c-8.412 11.01-10.237 21.518-9 35 1.967 10.057 9.433 17.705 17.563 23.5 7.633 4.659 15.586 5.36 24.438 4.5 2.285-.921 2.285-.921 4-2l-3-3c3.01-.934 3.867-1.044 7 0v2c7.606-1.711 13.752-7.628 18-14 1.44-2.958 2.73-5.966 4-9l1-2c.869-12.867.394-23.311-8.437-33.437-8.156-8.61-16.022-12.695-28-13.125-10.253.302-20.304 4.117-27.562 11.563z" class="H"/><path d="M749 181v25l127 1-1 3-29.25.5-2.22.036L749 211v94h-5v-94h-11l-1-11-2.785 1.313c-17.468 7.203-36.7 5.225-55.215 4.688 2.565-2.565 4.804-3.093 8.254-4.231l1.942-.646 6.367-2.096 4.416-1.464 11.637-3.841 18.628-6.158 6.518-2.149 3.984-1.315 3.521-1.159C744.901 181 744.901 181 749 181z" fill="#222221"/><path d="M1015.02 608.886h2.188l7.175.016 4.969.004 13.089.025 13.352.02L1082 609c-3.345 2.724-6.547 4.984-10.367 6.996l-3.147 1.672-3.36 1.769-7.07 3.77-1.802.962c-5.719 3.063-11.367 6.244-17.003 9.456L1006 652c-2.9-3.448-5.167-6.883-7.277-10.859l-1.807-3.383-1.854-3.508-3.652-6.859-1.75-3.299c-1.879-3.499-3.827-6.955-5.815-10.394C983 612 983 612 983 610h18l-1 5c.751 2.28.751 2.28 2.09 4.426l1.377 2.412 1.471 2.475 1.459 2.533L1010 633c5.598-.489 9.536-1.943 14.375-4.75l1.902-1.016c3.003-1.712 4.531-2.655 5.637-6L1032 619c-3.236-1.03-4.623-1.164-7.789.215l-2.836 1.723C1016.282 624 1016.282 624 1013 624l-7-14c2.986-1.493 5.69-1.119 9.02-1.114z" class="F"/><path d="M749 491h54v33h-50v-17h-4v-16z" class="G"/><path d="M658 154c2 2 2 2 2 5.438-1 3.563-1 3.563-3.465 5.082-4.304 1.802-8.669 3.269-13.098 4.73-12.958 4.367-25.557 9.583-38.182 14.821l-2.388.984-4.474 1.862c-2.959 1.219-5.16 2.083-8.394 2.083v2l1.661.338c5.5 1.165 10.773 2.672 16.093 4.482l2.383.799 7.426 2.506 5.08 1.707L635 205v1l-16.156.33-5.472.123c-13.035.366-23.387-1.224-35.372-6.453l-1 7-13-1c1.605-9.336 4.936-16.163 12.375-22.234 13.111-8.819 29.261-13.738 43.903-19.337l9.402-3.655 9.133-3.524 3.394-1.341c9.897-3.743 9.897-3.743 15.793-1.909z" fill="#f9f9f9"/><path d="M157.223 279.832c6.1 4.009 10.219 10.074 11.777 17.168.758 6.714-.625 12.125-4 18-5.614 6.993-14.944 11.775-23.645 13.535C139 328 139 328 137.071 325.416c-2.089-3.447-3.886-6.948-5.559-10.607l-.932-2.023-1.918-4.208-2.969-6.411-1.869-4.107-.906-1.92c-1.242-2.79-1.931-4.869-1.791-7.94 1.456-3.667 4.745-4.885 8.123-6.511l2.18-1.064c8.225-3.745 17.355-4.592 25.793-.792z" fill="#d2d2d1"/><path d="M301.188 209.5c8.024 7.132 13.748 14.788 15.258 25.727.226 6.06-.171 10.153-4.445 14.773-5.359 4.721-8.799 5.537-15.887 5.469-5.995-.903-8.988-4.757-12.57-9.328-4.711-6.889-8.443-15.546-7.988-24.008 1.113-5.331 4.136-9.596 8.633-12.633 5.545-2.712 11.484-2.596 17 0z" class="K"/><path d="M465 386v3c-2.23 2.086-2.23 2.086-5.187 4.375-7.265 5.253-7.265 5.253-11.812 12.625l-29.082.052-13.511.024c-38.312.095-38.312.095-54.407-1.075v-15l3.742.805c11.389 2.394 22.67 4.132 34.258 5.195v2l2.188-.473c2.626-.492 5.15-.769 7.813-.957l2.904-.216 3.096-.229c20.496-1.649 40.027-5.231 60-10.125z" fill="#f7f7f6"/><path d="M183.797 257.871c4.366 1.539 7.092 4.076 10.453 7.191l3.988 3.574 1.948 1.755c2.35 2.083 4.783 4.043 7.251 5.983l2.328 1.859 4.656 3.594c2.06 1.634 3.904 3.146 5.578 5.172.204 3.537-.361 5.01-2.25 7.938C216 296 216 296 213.688 296c-2.687-1-2.687-1-5.437-3.75-2.894-2.528-2.894-2.528-5.422-2.016-4.486 1.475-8.63 3.616-12.828 5.766h-2l.035 2.59.027 3.348.035 3.34C188 308 188 308 187 309c-1.497.098-2.999.13-4.5.125l-2.469.008C178 309 178 309 177 308a63.32 63.32 0 0 1-.177-4.273l-.039-2.751-.022-2.995-.024-3.061-.032-6.429-.105-9.837-.025-6.236-.053-2.977c.022-6.788.022-6.788 2.331-10.084C181 258 181 258 183.797 257.871z" class="K"/><path d="M65 609h56c-6.738 7.862-6.738 7.862-10.75 10.938l-2.598 2.027-5.273 4.039c-4.754 3.698-8.804 7.417-12.656 12.043-3.98 4.512-8.771 8.539-13.723 11.953h-2c-1.173-6.378-2.295-12.503-2-19h-2l-.351-1.804-1.586-8.071-.553-2.84-.537-2.715-.492-2.507c-.407-2.11-.407-2.11-1.481-4.063z" class="E"/><path d="M152 211h63c-1.563 3.125-4.183 3.614-7.332 5.02l-1.988.895-6.493 2.898-9.023 4.055-2.313 1.038-15.203 6.977-1.965.919-9.224 4.336-3.3 1.546-2.886 1.361C153 241 153 241 151 241l1-30z" fill="#f9f9f9"/><path d="M239.563 232.188C243 233 243 233 245 235c.047 2.215.047 2.215-.25 4.938l-.324 2.984-1.488 8.766c-1.627 8.849-1.264 13.59 3.066 21.699 1.164 3.054 1.032 4.547-.004 7.613-2.279 1.791-3.546 2.023-6.434 1.875-3.571-1.218-4.196-2.937-5.879-6.25l-1.551-2.961C231 271 231 271 231 268l-1.926-.656c-4.331-1.893-8.245-4.363-12.262-6.844l-2.482-1.512c-6.067-3.725-6.067-3.725-8.33-5.988.198-3.109.55-5.303 2.25-7.937C210 244 210 244 212.121 244.117c4.08 1.251 7.21 3.523 10.691 5.945l2.1 1.432L230 255c1.308-5.97 2.255-11.761 2.559-17.871.908-4.378 2.688-5.169 7.004-4.941z" class="K"/><path d="M1066 520c2.438.25 2.438.25 5 1l2 3 5.762-.207c4.092.379 7.248 2.476 10.238 5.207 1.125 2.688 1.125 2.688 1 5l-2 2c-3.297-.33-4.623-.623-7-3-3.45-.383-5.604-.167-8.812 1.188-2.357 1.659-2.357 1.659-3.187 4.313-.214 2.507-.214 2.507 1.125 4.375 1.833 1.338 1.833 1.338 4.125 1 2.897-.844 2.897-.844 6-2.5 4.603-1.688 8.066-1.849 12.75-.375 3 2.5 3 2.5 5 5l1 1c.452 4.689.536 8.781-1.375 13.125L1096 562h-2l1.063 1.688c1.156 2.851.747 4.398-.062 7.313l-4 1-1.164-1.969c-1.674-2.265-1.674-2.265-4.359-2.5l-2.852-.031c-3.716-.216-5.44-.396-8.75-2.25-2.097-2.517-2.789-3.981-2.875-7.25l2-2c2.563.25 2.563.25 5 1l1 2c3.631.214 6.477.178 9.938-1 2.229-1.759 2.229-1.759 2.367-3.98.007-2.009-.141-4.017-.305-6.02-4.799-.468-7.104.596-11.145 3.094-3.471 1.695-6.028 1.392-9.855.906-4.894-2.401-7.155-4.876-9-10-.601-4.118-.17-5.694 1.875-9.375L1065 530h2l-1-1.687c-1.14-2.637-1.231-4.468-1-7.312l1-1z" fill="#0a0a0a"/><path d="M744 182v24h-12v-6l-2.785 1.313c-17.468 7.203-36.7 5.225-55.215 4.688 2.564-2.564 4.808-3.101 8.254-4.247l1.942-.651 6.367-2.11 4.416-1.471 9.26-3.071 11.884-3.948 9.121-3.032 4.383-1.457 6.119-2.025 3.521-1.166C742 182 742 182 744 182z" fill="#f3f3f3"/><path d="M1082 604h9c-5.696 4.746-8.734 6.253-16.247 6.227l-2.189.001-7.142-.033-4.96-.009-13.04-.049-13.312-.04L1008 610c0 3.438.773 4.65 2.5 7.563 2.5 4.229 2.5 4.229 2.5 6.438l2.887-1.566 3.801-1.996 1.896-1.037c3.011-1.561 4.954-2.445 8.373-2.115L1032 618l1 5c-4.499 3.095-9.039 6.111-13.75 8.875l-2.109 1.242c-2.645 1.091-4.31 1.362-7.141.883-1.625-1.871-1.625-1.871-3-4.437l-1.504-2.754L1004 624l-1.527-2.527-1.41-2.348-1.277-2.117C999 615 999 615 1000 611h-18l-1-5h101v-2z" fill="#232322"/><path d="M545 176c5.012.716 8.033 1.192 12.438 3.063l2.621 1.098L562 181c-1.149 2.978-2.385 5.776-3.937 8.563-2.297 4.474-3.354 9.11-4.449 13.996C553 206 553 206 552 207l.25 3.813c.039 2.184.039 2.184-.25 4.188-2.375 2.375-2.375 2.375-5 4l-2 2v-10l-3.774.018c-13.52.043-27.023-.182-40.538-.518l-6.072-.145L480 210l1-3c3.218-1.296 6.533-1.121 9.962-1.114h3.639l3.914.016 4.018.004 10.554.025 10.779.02L545 206v-30z" fill="#1c1c1b"/><path d="M614 211h81c-3.179 2.119-6.338 3.337-9.906 4.602l-2.06.731-4.327 1.518-4.369 1.56c-16.78 6.091-27.071 4.565-43.524-1.41l-4.908-1.734L614 212v-1z" class="J"/><path d="M1260 609h20l.494 13.66.185 4.638c.633 12.81.633 12.81-2.652 17.55C1272.358 650 1272.358 650 1269 650c-1.173-6.378-2.295-12.503-2-19h-2l-.351-1.697-1.586-7.616-.553-2.67-.537-2.568-.492-2.365c-.486-2.26-.486-2.26-1.481-5.085z" class="E"/><path d="M879 212c4.409.719 8.468 2.168 12.637 3.723l2.184.803 6.867 2.537 6.899 2.548 4.284 1.586c3.473 1.347 3.473 1.347 7.13 1.804l4-7 1 2-3 6 1 2h-3l-.75 2.188c-1.368 3.077-3.144 5.196-5.25 7.813-1.045 1.977-2.057 3.973-3 6l-7-6-4 2c-2.957 1.478-5.742 1.06-9 1-.125-3.375-.125-3.375 0-7 2.139-2.139 3.133-2.427 6-3l-1.75-1.68-2.25-2.195-2.25-2.18C888 223 888 223 888 221l-1.875-.75c-2.512-1.478-2.886-2.69-4.125-5.25l-3-1v-2z" fill="#2d2d2d"/><path d="M943 440h13v1h-8l.04 3.894.27 36.371.142 18.698.117 18.051.065 6.88.047 9.651.065 2.86c-.064 6.846-2.102 10.612-6.747 15.595l-1-3 1-1c.108-1.416.147-2.838.158-4.258l.03-2.783.017-3.078.03-3.222.081-10.6.063-7.327.153-19.328.161-19.706L943 440z" fill="#1a1a19"/><path d="M1140 422l2 1 .625 7.125.254 2.016c.098 1.992.098 1.992-.879 5.859-3.001 2.612-6.458 4.227-10 6l-6.285 3.516-6.777 3.734c-8.798 4.847-17.548 9.752-26.088 15.044-1.583.96-3.212 1.843-4.849 2.706l-2-1 25.523-22.023 7.078-6.078L1140 422z" class="J"/><path d="M1084 617l2 1-27.227 23.481-5.586 4.796-1.902 1.635-3.581 3.081c-3.185 2.735-6.409 5.405-9.705 8.008-3.149-1.369-5.048-2.875-7.25-5.5l-1.578-1.844C1028 650 1028 650 1028 648l2.022-1.079 42.177-23.179 2.494-1.415 4.431-2.615c1.593-.959 3.231-1.845 4.876-2.712z" fill="#f6f6f6"/><path d="M975 167l6 5v2l1.75.75c2.579 1.433 4.311 3.034 6.25 5.25v2h2l3.188 3.563c3.415 4.024 7.031 7.759 10.813 11.438-9.062 3.021-20.499-3.785-28.874-7.156-4.336-1.721-8.73-3.285-13.126-4.844l1.866-.769c2.463-1.421 3.068-2.392 4.274-4.926l1.055-2.168 1.055-2.262 1.102-2.285L975 167z" fill="#323231"/><path d="M948 565c2.566 3.421 4.657 6.823 6.688 10.559l1.042 1.897 3.271 5.981 3.271 5.971 2.027 3.706c1.423 2.6 2.872 5.159 4.433 7.679C970 603 970 603 970 605h-22v-40z" fill="#ededed"/><path d="M47 521c6.972.972 13.3 3.142 19.828 5.684 5.499 2.12 11.053 3.765 16.739 5.32 4.747 1.377 9.356 3.079 13.996 4.777 3.311 1.174 6.634 2.215 10 3.219 5.629 1.689 11.048 3.755 16.512 5.914 2.368.879 4.591 1.555 7.051 2.086 5.269 1.153 10.041 3.672 14.875 6l-1 2a551.76 551.76 0 0 1-15.937-5.5c-4.972-1.788-9.953-3.414-15.027-4.883-2.035-.617-2.035-.617-4.66-1.68-2.548-1.071-2.548-1.071-6.062-1.812-3.202-.763-6.145-1.807-9.187-3.062-4.96-2.046-9.975-3.574-15.125-5.062-20.485-6.196-20.485-6.196-29-10 .525 7.217 1.787 14.04 3.5 21.063 1.292 5.321 2.535 10.541 3.094 15.996.149 3.721.149 3.721 1.406 5.941.18 1.35.32 2.706.438 4.063.487 4.757 1.464 9.291 2.563 13.938l1.535 7.25c.312 1.764.312 1.764 1.465 2.75.041 1.666.043 3.334 0 5l-3 1-.406-2.977c-.594-4.153-1.327-8.274-2.094-12.398l-.395-2.191c-.401-3.513-.401-3.513-2.105-6.434-.072-1.686-.084-3.375-.062-5.062l.027-2.785L56 567h-2l-.551-3.41C51.658 547.351 51.658 547.351 47 532c-.07-1.874-.084-3.75-.062-5.625l.027-3.039L47 521z" class="L"/><path d="M151.25 290.25c2.788 1.774 4.031 2.974 5.75 5.75.798 4.031.904 8.176-.949 11.914-2.515 3.221-5.127 5.053-9.051 6.086h-3l-3.937-8.75-1.131-2.5-1.084-2.422-1-2.222c-.814-2.021-1.376-3.982-1.848-6.106 5.701-3.337 9.995-4.156 16.25-1.75z" fill="#040404"/><path d="M1001 610c2.852.098 2.852.098 6 1 1.898 2.434 1.898 2.434 3.375 5.438l1.523 2.996C1013 622 1013 622 1013 624l2.887-1.566 3.801-1.996 1.896-1.037c3.011-1.561 4.954-2.445 8.373-2.115L1032 618l1 5c-4.499 3.095-9.039 6.111-13.75 8.875l-2.109 1.242c-2.645 1.091-4.31 1.362-7.141.883-1.625-1.871-1.625-1.871-3-4.437l-1.504-2.754L1004 624l-1.527-2.527-1.41-2.348-1.277-2.117c-.957-2.447-.713-3.586.215-6.008l1-1z" class="H"/><path d="M1146 467l2 1-.007 2.69-.045 25.535-.024 13.117c-.055 21.245.126 42.431 1.075 63.658l-5 2-.031-3.935-.308-36.641-.158-18.839-.156-18.168-.056-6.945-.086-9.698-.017-2.925-.03-2.66-.02-2.318c-.026-1.962-.026-1.962-1.139-3.87 1.875-1.062 1.875-1.062 4-2z" fill="#282827"/><path d="M992 546l2 2c-.105 1.93-.105 1.93-1 4-1.926 1.633-1.926 1.633-4.312 3.125l-2.363 1.508L980 560c1.021 3.488 2.222 6.485 4.125 9.563 1.8 3.301 2.412 4.787 1.875 8.438-1 1-1 1-4.062 1.063L979 579l-5.062-8.687-1.471-2.475-1.377-2.412-1.285-2.206c-1.016-2.805-.689-4.404.196-7.22 1.531-1.406 1.531-1.406 3.5-2.5l2.176-1.23L978 551l2.355-1.426c6.898-4.102 6.898-4.102 11.645-3.574zm185-34c1.941.125 1.941.125 4 1 2.385 2.732 4.134 5.896 6 9l1.531 2.422 1.406 2.328 1.277 2.109c1.107 3.019 1.11 4.169-.215 7.141-2.553 2.123-5.356 3.698-8.25 5.313l-2.316 1.377c-7.235 4.155-7.235 4.155-11.434 3.311-2-2-2-2-2.035-4.387 1.477-3.729 4.155-4.782 7.598-6.426l1.865-.943L1181 532c-1.079-3.456-2.149-6.525-4.125-9.562-1.801-3.302-2.501-4.787-1.875-8.437l2-2z" class="H"/><path d="M1181 469c6.605 6.392 12.662 13.292 18.438 20.438 4.635 5.733 9.553 11.156 14.563 16.563-1.697 3.739-3.613 5.629-7 8h-2l-1.126-2.117-5.249-9.821-.956-1.784c-4.419-8.239-8.955-16.391-13.823-24.375C1181 471.197 1181 471.197 1181 469z" fill="#f1f1f1"/><path d="M1142 586v18h-27c6.754-7.879 6.754-7.879 10.672-10.09l2.512-1.436 2.566-1.412 2.613-1.494C1139.688 586 1139.688 586 1142 586z" class="F"/><path d="M292.813 219.5c3.188.5 3.188.5 5.813 2.938 3.705 5.101 6.414 10.119 6.313 16.5C304 242 304 242 301 244c-2.375 0-2.375 0-5-1-4.888-4.888-8.108-10.23-8.312-17.312.374-4.418.737-5.407 5.125-6.187z" fill="#050505"/><path d="M738 359c8 0 8 0 10 1v27h-10v-28z" fill="#3d3d3c"/><path d="M947 440h9v1h-8l.02 3.928.135 36.596.071 18.816.058 18.148.033 6.934.023 9.69.033 2.914-.012 2.664.008 2.316c-.463 2.5-1.448 3.393-3.369 4.993l-.055-14.734-.021-5.011-.022-7.208-.016-2.257c-.001-5.374-.001-5.374.608-7.594.694-3.013.672-5.892.711-8.983l.03-2.041.081-6.655.063-4.624.153-12.152.161-12.408L947 440zm-4 30h1l.598 30.694.276 14.252.253 13.752.11 5.248.125 7.347.072 2.195c.015 3.55-.178 5.197-2.457 7.993L941 553l.487-1.518c.701-3.39.691-6.741.718-10.188l.03-2.337.081-7.629.063-5.296.153-13.928.161-14.217L943 470z" fill="#4d4d4c"/><path d="M460 524h16v16h-16v-16z"/><path d="M120 608h2l1 3-4 2v2h-2l-.75 1.813c-1.431 2.504-2.819 3.668-5.25 5.188h-2l-.746 1.801c-1.462 2.565-2.922 3.677-5.316 5.387-4.302 3.219-7.991 6.77-11.742 10.605C86.242 644.773 81.049 649.4 75 653h-2l-3.418-13.66-1.164-4.638L66.75 628l-.53-2.062c-1.153-4.751-1.373-9.049-1.22-13.938l2-1 1.5 7.188.434 2.041c.747 3.647 1.24 7.048 1.066 10.771h2c1.173 6.378 2.295 12.503 2 19 7.771-5.477 14.807-11.8 21.52-18.523 2.431-2.427 4.926-4.744 7.48-7.039l2.5-2.254C112.58 616 112.58 616 115 616l.813-1.812c1.174-2.162 2.424-3.504 4.188-5.187v-1z" class="L"/><path d="M1242 521c7.085.988 13.453 3.174 20.083 5.745 4.645 1.798 9.297 3.369 14.097 4.712C1278 532 1278 532 1280 533v2c-7.209-1.491-14.034-3.152-20.781-6.133-2.391-.934-4.704-1.375-7.219-1.867-2.392-.893-4.669-1.949-7-3a136.13 136.13 0 0 0 5.063 28.656c.784 2.798 1.263 5.277 1.5 8.156.269 3.214.269 3.214 1.438 6.188.179 1.371.32 2.747.438 4.125.306 3.127.81 5.985 1.688 9 .962 4.259.75 6.676-.125 10.875h-1c-2.618-12.203-5.219-24.386-7.099-36.728-.277-3.429-.277-3.429-1.901-6.272-.373-2.306-.699-4.621-1-6.937-.481-4.686-.481-4.686-2-9.062-.07-1.874-.084-3.75-.062-5.625l.027-3.039L1242 521z" fill="#313130"/><path d="M279 246c1.875 1.688 1.875 1.688 3 4 .09 2.371.09 2.371-1 5-2.584 1.87-5.4 3.097-8.312 4.375l-2.342 1.113c-5.666 2.582-5.666 2.582-8.475 2.292C260 262 260 262 258 259v-5l7.688-4 2.186-1.156c6.946-3.552 6.946-3.552 11.127-2.844z" fill="#cececd"/><path d="M152 558c6.633 1.565 12.848 3.064 19 6-1.52 4.255-4.345 5.563-8 8-.911.989-1.787 2.011-2.625 3.063-2.024 2.504-3.663 4.254-6.375 5.938h-2v-23z" fill="#f6f6f6"/><path d="M945 71h2v73h-2v12h-1l-.052-32.805-.024-15.231-.019-14.686-.011-5.616-.008-7.838-.011-2.369c.01-5.341.01-5.341 1.124-6.455z" class="M"/><path d="M605 578c3.635 2.608 4.834 4.07 5.625 8.5-.791 4.43-1.99 5.892-5.625 8.5-3 .625-3 .625-6 0-2.875-2-4.629-3.489-5.484-6.973-.252-3.746.179-5.668 2.609-8.527 3.408-1.778 5.09-2.21 8.875-1.5z" fill="#202020"/><path d="M0 207h82l-1 3-81 1v-4z" class="M"/><path d="M650 211l-14.984.702-5.076.248c-11.79.64-20.983-.309-31.94-4.95v-1l15.094-.647 5.117-.228c24.71-1.205 24.71-1.205 31.789 5.875z" fill="#414140"/><path d="M411 207h70l-1 3h-69v-3z" class="M"/><path d="M550 177c10 3 10 3 12 4-1.121 2.991-2.413 5.765-3.937 8.563C555.4 194.758 554.247 200.33 553 206h-3v-29z" fill="#ededed"/><path d="M681.012 205.678c5.045.544 10.107.686 15.175.885l3.174.131L707 207c-4.315 4.315-10.37 5.06-16.286 5.146-4.951-.035-9.893-.243-14.839-.458l-5.211-.186L658 211c2.855-1.903 5.291-3.018 8.5-4.187l2.906-1.105c4.118-.81 7.464-.501 11.606-.029z" fill="#353535"/><path d="M736 474h1v16h66v1h-54v16h-5v-16h-8v-17z" fill="#676766"/><path d="M738 319h6v27h-6v-27z" fill="#e9e9e9"/><path d="M590 562h6l2 7 3-7 3 1 1 5h1l2-6h2c-.549 4.571-1.417 8.674-3 13h-3l-1-7h-2l-1 7h-4l-2-11h-2l-.375 3.688c-.414 3.377-1.171 6.21-2.625 9.313h-2c.778-5.055 1.859-10.017 3-15z" fill="#191919"/><path d="M1243 446h3l1 5.25.563 2.953C1248 457 1248 457 1248 461l2 1-14 2c0-5.765.229-7.154 2.938-11.812l1.652-2.895C1242 447 1242 447 1243 446z" fill="#141414"/><path d="M548 113h1l1 45-4 1-.11-17.242-.041-5.863-.044-8.437-.031-2.639c-.001-4.395.157-7.819 2.227-11.818z" fill="#1a1a18"/><path d="M385 313c2.691.283 4.502.62 6.672 2.277C393 317 393 317 393.18 319.051c-.655 4.862-1.644 8.65-4.18 12.949-2.468-1.152-4.048-2.048-6-4-.012-3.223-.012-3.223.313-7.062l.301-3.848C384 314 384 314 385 313z" fill="#0a0a0a"/><path d="M739 360h5v27h-5v-27z" class="F"/><path d="M744 319h5v27h-5v-27z" fill="#353534"/><path d="M181 384c1.317 4.776 2.465 9.003 2 14l-2 3c-2.437.438-2.437.438-5 0-2.483-2.226-2.953-3.628-3.375-6.937.424-3.463 1.292-5.285 3.375-8.062 3-2 3-2 5-2z" class="I"/><path d="M545 231c7 6 7 6 7.387 9.332l-.699 3.48-.73 3.684c-1.21 4.429-2.761 8.474-4.957 12.504h-1v-29z" fill="#1a1a1a"/><path d="M1261 612h1l1.5 6.688.844 3.762c.55 2.975.794 5.544.656 8.551h2c1.173 6.378 2.295 12.503 2 19l1.645-1.242 2.168-1.633 2.145-1.617c1.648-1.216 3.339-2.372 5.043-3.508-.36 2.852-.89 3.894-2.996 5.922l-2.441 1.828-2.434 1.859C1270 653 1270 653 1268 653l-3.473-13.66-1.185-4.638-1.69-6.703-.546-2.062c-1.225-5.044-.974-8.905-.106-13.938z" fill="#363635"/><path d="M944 272h1l.076 3.165.296 11.624.125 5.031.186 7.231.051 2.273c.089 3.133.268 5.683 1.266 8.676l-1 1-.205 6.815-.03 2.158-.081 7.094-.063 4.906-.153 12.937-.161 13.191L945 384h-1V272z" fill="#171715"/><path d="M1241 207h39v3h-40l1-3z" fill="#181818"/><path d="M1246 540h1l.367 1.723c.79 3.642 1.612 7.208 2.695 10.777.954 3.56 1.383 6.921 1.691 10.582.149 1.999.149 1.999 1.246 3.918.179 1.371.32 2.747.438 4.125.306 3.127.81 5.985 1.688 9 .962 4.259.75 6.676-.125 10.875h-1c-2.618-12.203-5.219-24.386-7.099-36.728-.277-3.429-.277-3.429-1.901-6.272-.235-5.529-.235-5.529 1-8z" fill="#3e3e3d"/><path d="M101 539c3.703-.183 6.234.276 9.625 1.75 9.98 4.217 9.98 4.217 20.375 7.188 5.307 1.205 10.121 3.712 15 6.063l-1 2a551.76 551.76 0 0 1-15.937-5.5c-4.97-1.787-9.947-3.414-15.02-4.879C112 545 112 545 109.25 543.875c-2.716-1.056-5.371-1.473-8.25-1.875v-3z" fill="#3e3e3e"/><path d="M747 109h1l1 46-6-1 2-1-.032-3.608-.078-13.262-.041-5.738-.044-8.251-.031-2.589v-2.426l-.013-2.126c.281-2.338 1.088-3.962 2.241-6z" fill="#171716"/><path d="M145 591h1v13h-15v-2l5.375-4.125 3.023-2.195C142 594 142 594 144 594l1-3z" fill="#f7f7f7"/><path d="M157 558c5.929 1.167 11.388 2.755 17 5-.39 4.475-3.523 6.711-6.687 9.5l-1.568 1.434c-3.392 3.05-6.896 5.62-10.744 8.066v-3c1.423-1.258 2.857-2.508 4.352-3.68 2.404-1.925 4.5-4.117 6.648-6.32l5-5-1.937-.312c-4.127-.927-8.069-2.304-12.062-3.687v-2z" fill="#313131"/><path d="M1041 207h40l-1 3h-40l1-3z" fill="#171716"/><path d="M143 589l4 1 .063 6.938.035 3.902C147 604 147 604 146 605l-8.062.063-2.299-.014L130 605l-1-4 4.875-4 2.742-2.25C139 593 139 593 141 593l2-4zm2 2l-1 3-2.062.813C137.813 596.48 134.285 599 131 602v2h15v-13h-1z" fill="#4b4b4a"/><path d="M892 232c2.729.033 5.297.564 8 1l1 5c-2.712 2.603-3.891 2.995-7.75 3.188L890 241v-7l2-2z" class="H"/><path d="M669 562l2 4h-7v5l4 1 1-2h-2v-2h5l-1 6c-2.763 1.381-4.947 1.191-8 1-2-2-2-2-2.312-5.937.075-2.593.16-3.806 1.5-6.062 2.372-1.309 4.146-1.216 6.813-1z" fill="#1d1d1d"/><path d="M820 468l4.313-.062 2.426-.035C829 468 829 468 832 469v6c-4.969-.514-9.29-1.234-14-3l2-4z" fill="#131313"/><path d="M205 370c2.745 1.373 3.444 3.406 5 6l2 1-1 4c-5.425 1.326-5.425 1.326-7.875-.062-1.624-2.797-1.522-4.761-1.125-7.937 1.5-1.875 1.5-1.875 3-3z" fill="#0d0d0d"/><path d="M337 211h8v16c-2.918-2.918-4.047-4.862-5.687-8.562l-1.324-2.941C337 213 337 213 337 211z" fill="#f3f3f3"/><path d="M632 562h3v4l2.438-.062C640 566 640 566 641 567c.141 2.671.042 5.324 0 8h-3v-7h-3v7h-3v-13z" fill="#292929"/><path d="M1147 445v12l2 1-7 2-1-13c5-2 5-2 6-2z" fill="#282828"/><path d="M1142 424c7.366 5.893 7.366 5.893 8 10h-2v2l-6 2v-14z" fill="#434342"/><path d="M66 611h1l1.5 7.188.434 2.041c.747 3.647 1.24 7.048 1.066 10.771h2c.125 3.375.125 3.375 0 7l-2 2-2.5-9.5-.723-2.687C65.38 622.381 64.64 617.611 65 612l1-1z" class="L"/><path d="M616 565.875c3 .125 3 .125 4 1.125.141 2.671.042 5.324 0 8h-8l-1-4 4-2-3-2c1-1 1-1 4-1.125z" fill="#222"/><path d="M646.5 565.75c2.5.25 2.5.25 4.5 2.25v3h-6v2l6-1v2l-7 1c-2-2-2-2-2.25-4.5.349-3.494 1.256-4.401 4.75-4.75z" fill="#2a2a2a"/><path d="M1266 638h2c.982 4.053 1.082 7.839 1 12l1.645-1.242 2.168-1.633 2.145-1.617c1.648-1.216 3.339-2.372 5.043-3.508-.36 2.852-.89 3.894-2.996 5.922l-2.441 1.828-2.434 1.859C1270 653 1270 653 1268 653c-1.263-5.075-2.27-9.728-2-15z" fill="#282828"/><path d="M684 566h3l2 3 1-3 3 1-1.875 4.875-1.055 2.742C689 577 689 577 687 579h-3l1-3h2l-3-10z" fill="#202020"/><path d="M577 207v4h-13v-4c4.629-1.016 8.345-.838 13 0z" fill="#1c1c1c"/><path d="M1246 540h1l.367 1.723c.794 3.658 1.611 7.209 2.758 10.777 1.063 4.253 1.053 8.145.875 12.5h-1l-.84-3.465-1.098-4.473-.553-2.287c-.648-3.688-.648-3.688-2.51-6.775-.235-5.529-.235-5.529 1-8z" fill="#424241"/><path d="M590 562h6l1 4h-3v-2h-2l-.375 3.688c-.414 3.377-1.171 6.21-2.625 9.313h-2c.778-5.055 1.859-10.017 3-15z" fill="#303030"/><path d="M626.063 565.938L629 566l1 3-6-1 1 4h5l-1 3c-2.875.188-2.875.188-6 0-2-3-2-3-1.687-5.625 1.009-3.487.979-3.361 4.75-3.437z" fill="#1c1c1c"/><path d="M1242 521l6 1-1 2h-2l1 18c-4.456-6.684-4.254-13.207-4-21zM48 528c3.156 3.156 3.315 7.157 4.188 11.438l.576 2.643.529 2.541.485 2.326C54 549 54 549 53 552c-4.4-7.2-5.161-15.695-5-24z" fill="#2d2d2c"/><path d="M674 566h2l1 6h2l1-6h2v9h-7c-1-1-1-1-1.098-2.848L674 566z" fill="#070707"/><path d="M665.848 564.902L672 565v2l-5 1v2h2l-1 3c-3.875-.875-3.875-.875-5-2-.125-2.5-.125-2.5 0-5 1-1 1-1 2.848-1.098z" fill="#ddd"/><path d="M545 294h4v11h-4v-11z" fill="#212121"/><path d="M47 521c9.75 1.75 9.75 1.75 12 4l-2 2-7-3-2 8h-1v-11z" fill="#3a3a39"/><path d="M1266.777 528.391l3.16.859 3.152.828c2.482.786 4.635 1.672 6.91 2.922v2l-6.125-1.375-3.445-.773c-3.214-.798-6.305-1.759-9.43-2.852 3-2 3-2 5.777-1.609z" fill="#393938"/><path d="M101 539c3.866-.208 6.564.383 10.125 1.875l2.57 1.055C116 543 116 543 119 545c-3.193 1.064-4.808.968-7.875-.375-3.364-1.38-6.498-2.172-10.125-2.625v-3z" fill="#474747"/><path d="M58 525c6.401.466 11.268 2.147 17 5-3.974 1.564-6.814.361-10.75-.937l-3.547-1.152L58 527v-2z" fill="#2c2c2b"/><path d="M595 566h2l1 3 3-1-1 7h-4l-1-9z" fill="#151515"/><path d="M189 277a56.54 56.54 0 0 1 7 4v2l-7 2v-8z" class="I"/><path d="M71 638h2c1.102 4.409 1.077 8.484 1 13l2 1-3 1c-1.263-5.075-2.27-9.728-2-15z" fill="#292928"/><path d="M1264 626h1v5h2c.25 6.625.25 6.625-2 10l-1.062-5.25-.598-2.953c-.324-2.665-.195-4.286.66-6.797z" fill="#525251"/><path d="M52 551l3 1 1 10-2 1c-1.292-4.12-2.263-7.668-2-12z" fill="#494948"/><path d="M69 626h1v5h2v7l-2 2c-2.481-9.41-2.481-9.41-1-14z" fill="#4c4c4b"/><path d="M120 608h2l1 3-4 2v2h-2l-1 3-3-2h2l.813-1.812c1.174-2.162 2.424-3.504 4.188-5.187v-1z" fill="#3d3d3c"/><path d="M116 545c5.664.365 10.007 1.055 15 4-3.496 1.214-5.691.777-9.187-.312l-2.668-.801C117 547 117 547 116 545z" fill="#2f2f2e"/><path d="M1279 642l1 3-8 7-3-2 1.68-1.242 2.195-1.633 2.18-1.617c2.028-1.507 2.028-1.507 3.945-3.508z" fill="#323231"/><path d="M83 643l2 3-9 6-2-2 1.715-1.277 2.223-1.66 2.215-1.652c1.761-1.279 1.761-1.279 2.848-2.41z" fill="#3b3b3b"/><path d="M549 236l3 1-2 12h-1v-13z" fill="#a9a9a9"/><path d="M642 568l3 3v2l6-1v2l-7 1c-2-2-2-2-2.125-4.625L642 568z" fill="#333"/><path d="M1095 460l2 1c-1.161 3.482-1.909 3.888-4.937 5.75l-2.152 1.359-1.91.891-2-1 9-8z" fill="#d5d5d5"/><path d="M1255 587c4.159 8.021 4.159 8.021 3.625 11.313L1258 600l-2-1c-1.172-3.984-1.081-7.874-1-12z" fill="#2b2b29"/><path d="M1088 576c2 .25 2 .25 4 1l1 3h-6c0-3 0-3 1-4z" fill="#222"/><path d="M626.063 565.938L629 566l1 3-3.375-.187L623 569l-2 3c1.074-5.981 1.074-5.981 5.063-6.062z" fill="#313131"/><path d="M78.063 530.25C81 531 81 531 83 533c-4.002 1.601-7.046.293-11-1 3-2 3-2 6.063-1.75z" fill="#434341"/><path d="M274 386h2l-1 5-4 1c.573-2.867.861-3.861 3-6z" fill="#161616"/><path d="M608 562h2l-1 7-3 1c.875-6.875.875-6.875 2-8z" fill="#232323"/><path d="M1249 560h1v5h2v7c-2-1-2-1-2.625-2.625-.496-3.141-.436-6.201-.375-9.375z" fill="#313130"/><path d="M611 571l1 2h2v-2h3l1 4h-6l-1-4z" fill="#727272"/><path d="M879 212c3.375.547 5.082 1.055 8 3l-5 2v-2l-3-1v-2z" fill="#575756"/><path d="M915 145l4 2v2l3 4c-3.795-1.491-5.61-3.757-8-7l1-1z" fill="#a0a0a0"/></svg>